<?xml version="1.0" encoding="UTF-8"?><svg id="Layer_1" xmlns="http://www.w3.org/2000/svg" xmlns:xlink="http://www.w3.org/1999/xlink" viewBox="0 0 2020 426"><defs><style>.cls-1{fill:url(#linear-gradient);}.cls-1,.cls-2{stroke-width:0px;}.cls-2{fill:#f0f0fa;}</style><linearGradient id="linear-gradient" x1="9.9" y1="212.83" x2="307.83" y2="212.83" gradientUnits="userSpaceOnUse"><stop offset=".11" stop-color="#F5A623"/><stop offset=".71" stop-color="#F5C563"/></linearGradient></defs><path class="cls-2" d="M711.71,75.37h67.73c17.81,0,19.56,0,25.83.5,14.8,1,26.34,7.27,32.61,17.56,5.52,9.28,7.53,20.07,7.53,40.38,0,31.1-7.78,46.4-27.09,52.17q-6.77,2.26-37.12,2.76h-37.38v53.93h-32.11V75.37ZM779.94,161.15c28.34,0,32.86-3.76,32.86-27.84,0-18.56-2.01-25.33-8.53-28.85-4.52-2-7.52-2.51-21.07-2.51h-39.38v59.19h36.12Z"/><path class="cls-2" d="M960.8,105.05c12.68,5.71,19.87,15.85,22.62,32.34,1.06,6.34,1.48,14.59,1.48,33.4,0,33.82-1.27,43.12-7.19,53.69-5.07,8.88-14.37,15.01-27.06,17.55-5.71,1.27-16.91,1.9-30.65,1.9-20.93,0-31.5-1.69-40.17-6.34-11.2-6.13-16.91-15.22-19.45-30.86-1.06-6.55-1.27-13.32-1.27-30.86,0-36.36,1.48-46.72,8.03-57.08,5.28-8.24,14.59-14.16,26.21-16.49,5.5-1.27,17.12-1.9,29.81-1.9,20.08,0,29.38,1.27,37.63,4.65ZM886.6,177.98c0,24.73,1.06,31.08,6.13,36.99,4.02,4.65,10.36,5.71,31.92,5.71s26.42-2.33,30.02-12.47c2.54-6.98,2.75-10.57,2.75-36.99,0-22.2,0-22.83-1.06-29.38-1.27-8.24-4.65-13.53-9.94-15.85-4.65-1.9-9.94-2.33-25.79-2.33-17.12,0-22.83,1.06-27.27,5.5-4.65,4.44-6.55,11.84-6.76,25.79v23.04Z"/><path class="cls-2" d="M1163.3,242.67h-39.53l-19.45-72.3c-2.96-10.78-3.38-12.68-8.24-34.88h-1.06l-1.9,8.67c-3.17,13.32-4.02,16.28-6.76,26.21l-20.08,72.3h-39.11l-36.57-141h27.27l20.29,77.37c1.9,7.61,2.96,12.05,6.76,30.86l2.11,10.36h.85c4.65-18.18,8.03-31.92,10.57-41.22l21.56-77.37h31.5l21.14,77.37c3.38,12.47,3.59,13.74,7.61,30.86l2.54,10.36h.85l2.11-10.36c3.81-17.97,4.86-22.62,7.19-30.86l20.72-77.37h27.48l-37.84,141Z"/><path class="cls-2" d="M1241.34,160.65h65.74v19.87h-65.74v39.74h69.97v22.41h-97.03V101.67h96.4v22.41h-69.34v36.57Z"/><path class="cls-2" d="M1327.61,101.67h69.34c34.03,0,45.66,10.57,45.66,42.07,0,28.12-4.86,35.73-25.37,39.74v1.06c16.07.85,24.1,10.36,23.89,27.48v30.65h-27.27v-25.37c.42-15.43-6.13-21.99-21.14-21.56h-38.05v46.93h-27.06V101.67ZM1392.51,172.7c8.46,0,13.95-1.27,17.12-4.23,4.44-3.59,5.5-7.82,5.5-19.87,0-19.87-3.38-23.68-20.72-23.68h-39.74v47.78h37.84Z"/><path class="cls-2" d="M1494.19,214.57h78.01v28.1h-110.11V75.37h32.11v139.2Z"/><path class="cls-2" d="M1613.45,242.67h-27.06V101.67h27.06v141Z"/><path class="cls-2" d="M1765.13,242.67h-45.45l-40.38-77.37c-2.54-5.28-5.28-10.99-13.74-30.44l-4.65-9.94h-.85l.21,9.09c.63,13.53.63,14.59.63,27.69v80.97h-26.64V101.67h45.24l36.78,71.45c5.28,10.57,6.98,14.16,16.49,34.46l5.5,11.63h.85l-.21-9.09c-.63-13.11-.63-14.16-.63-27.27v-81.18h26.85v141Z"/><path class="cls-2" d="M1813.41,160.65h65.74v19.87h-65.74v39.74h69.97v22.41h-97.03V101.67h96.4v22.41h-69.34v36.57Z"/><path class="cls-2" d="M1980.52,142.89v-2.54c0-15.43-4.44-18.6-26.21-18.6-25.58,0-30.65,3.17-30.65,19.24,0,10.15,2.54,14.8,9.3,16.91,3.59,1.06,4.86,1.06,26.85,2.33,23.68,1.48,31.71,2.96,38.47,7.82,8.67,5.92,11.63,14.16,11.63,32.13s-2.54,27.06-8.67,33.19c-8.46,8.24-19.24,10.57-48.62,10.57-25.58,0-34.25-1.48-43.55-6.98-5.28-3.17-9.72-9.94-11.2-17.33-1.27-6.13-1.48-10.36-1.69-21.56h26c0,10.57.63,14.16,2.96,17.76,3.38,5.71,6.76,6.34,28.75,6.34,15.85,0,20.29-.63,24.31-3.81,3.59-2.54,5.07-8.03,5.07-17.76s-2.11-13.74-7.82-15.64q-3.38-1.27-26.85-2.75c-24.1-1.48-29.17-2.33-36.36-5.71-11.2-5.5-15.64-15.64-15.64-35.09,0-16.7,3.59-27.06,11.2-32.56,8.67-6.55,19.66-8.46,45.87-8.46s37.84,2.75,44.82,10.57c5.5,6.13,8.03,14.59,8.03,26.85v5.07h-26Z"/><rect class="cls-2" x="342.59" y="273.93" width="1667.31" height="4.33"/><path class="cls-2" d="M1590.25,346.09v-30.26h11.42c2.01,0,3.54.09,4.6.28,1.49.25,2.73.72,3.73,1.42,1,.69,1.82,1.66,2.43,2.92.61,1.25.92,2.63.92,4.13,0,2.57-.82,4.75-2.46,6.53-1.64,1.78-4.6,2.68-8.88,2.68h-7.76v12.3h-4ZM1594.25,330.21h7.82c2.59,0,4.43-.48,5.52-1.45,1.08-.96,1.63-2.32,1.63-4.07,0-1.26-.32-2.35-.96-3.25-.64-.9-1.48-1.49-2.52-1.78-.68-.18-1.92-.27-3.74-.27h-7.74v10.82Z"/><path class="cls-2" d="M1615.9,335.13c0-4.06,1.13-7.07,3.39-9.02,1.88-1.63,4.18-2.44,6.9-2.44,3.01,0,5.48.99,7.39,2.97,1.91,1.98,2.87,4.7,2.87,8.19,0,2.82-.42,5.04-1.27,6.66-.85,1.61-2.08,2.87-3.7,3.77-1.62.89-3.38,1.34-5.29,1.34-3.07,0-5.55-.98-7.45-2.95-1.89-1.97-2.84-4.8-2.84-8.5ZM1619.72,335.13c0,2.81.61,4.91,1.84,6.3,1.22,1.4,2.77,2.09,4.62,2.09s3.38-.7,4.6-2.1c1.22-1.41,1.84-3.55,1.84-6.42,0-2.72-.62-4.76-1.85-6.16-1.23-1.39-2.76-2.09-4.59-2.09s-3.4.69-4.62,2.09c-1.23,1.39-1.84,3.49-1.84,6.3Z"/><path class="cls-2" d="M1644.37,346.09l-6.71-21.93h3.84l3.49,12.66,1.3,4.7c.05-.23.44-1.74,1.14-4.52l3.49-12.84h3.82l3.28,12.72,1.1,4.19,1.26-4.23,3.76-12.68h3.61l-6.86,21.93h-3.86l-3.49-13.13-.85-3.73-4.44,16.87h-3.88Z"/><path class="cls-2" d="M1685.26,339.03l3.84.48c-.61,2.25-1.72,3.98-3.36,5.23-1.64,1.24-3.73,1.86-6.28,1.86-3.21,0-5.75-.98-7.63-2.96-1.88-1.98-2.82-4.75-2.82-8.31s.95-6.55,2.85-8.59c1.9-2.04,4.36-3.06,7.39-3.06s5.33,1,7.19,2.99,2.79,4.8,2.79,8.42c0,.22,0,.55-.02.99h-16.35c.13,2.41.82,4.25,2.04,5.54s2.75,1.92,4.58,1.92c1.36,0,2.52-.36,3.49-1.07s1.72-1.86,2.29-3.43ZM1673.05,333.02h12.24c-.17-1.84-.63-3.23-1.4-4.15-1.19-1.43-2.72-2.15-4.6-2.15-1.71,0-3.14.57-4.31,1.71s-1.8,2.67-1.93,4.58Z"/><path class="cls-2" d="M1693.5,346.09v-21.93h3.34v3.32c.85-1.55,1.64-2.58,2.37-3.07.72-.5,1.51-.75,2.38-.75,1.25,0,2.52.4,3.82,1.2l-1.28,3.44c-.91-.54-1.82-.8-2.73-.8-.81,0-1.54.24-2.19.73-.65.49-1.1,1.17-1.38,2.03-.42,1.32-.62,2.77-.62,4.33v11.48h-3.71Z"/><path class="cls-2" d="M1722.36,339.03l3.84.48c-.61,2.25-1.72,3.98-3.36,5.23-1.64,1.24-3.73,1.86-6.28,1.86-3.21,0-5.75-.98-7.63-2.96-1.88-1.98-2.82-4.75-2.82-8.31s.95-6.55,2.85-8.59c1.9-2.04,4.36-3.06,7.39-3.06s5.33,1,7.19,2.99,2.79,4.8,2.79,8.42c0,.22,0,.55-.02.99h-16.35c.13,2.41.82,4.25,2.04,5.54s2.75,1.92,4.58,1.92c1.36,0,2.52-.36,3.49-1.07s1.72-1.86,2.29-3.43ZM1710.15,333.02h12.24c-.17-1.84-.63-3.23-1.4-4.15-1.19-1.43-2.72-2.15-4.6-2.15-1.71,0-3.14.57-4.31,1.71s-1.8,2.67-1.93,4.58Z"/><path class="cls-2" d="M1744.94,346.09v-2.77c-1.39,2.17-3.44,3.26-6.13,3.26-1.75,0-3.36-.48-4.82-1.45s-2.6-2.31-3.4-4.04c-.81-1.72-1.21-3.71-1.21-5.95s.36-4.18,1.09-5.96c.73-1.78,1.82-3.14,3.28-4.1s3.09-1.43,4.9-1.43c1.32,0,2.5.28,3.53.84,1.03.55,1.88,1.28,2.52,2.17v-10.85h3.69v30.26h-3.45ZM1733.2,335.15c0,2.81.59,4.9,1.78,6.3,1.18,1.39,2.58,2.08,4.19,2.08s3.01-.66,4.14-1.99c1.13-1.33,1.7-3.36,1.7-6.08,0-3.01-.57-5.21-1.73-6.61-1.16-1.41-2.58-2.11-4.27-2.11s-3.03.67-4.14,2.02c-1.1,1.35-1.66,3.47-1.66,6.38Z"/><path class="cls-2" d="M1767.3,346.09h-3.45v-30.26h3.71v10.79c1.57-1.97,3.57-2.95,6.01-2.95,1.35,0,2.62.27,3.82.82,1.21.54,2.2,1.31,2.97,2.29.78.98,1.39,2.17,1.83,3.56.44,1.39.66,2.87.66,4.46,0,3.75-.93,6.66-2.79,8.71-1.86,2.05-4.09,3.08-6.69,3.08s-4.61-1.08-6.08-3.24v2.75ZM1767.25,334.96c0,2.63.36,4.53,1.08,5.69,1.17,1.92,2.75,2.87,4.75,2.87,1.62,0,3.03-.7,4.21-2.11,1.18-1.41,1.78-3.51,1.78-6.3s-.57-4.98-1.7-6.34-2.51-2.04-4.12-2.04-3.03.71-4.21,2.11c-1.18,1.41-1.78,3.45-1.78,6.12Z"/><path class="cls-2" d="M1786.24,354.53l-.42-3.49c.81.22,1.53.33,2.13.33.83,0,1.49-.14,1.98-.41.5-.28.91-.66,1.22-1.16.23-.37.61-1.29,1.13-2.76.07-.21.18-.51.33-.91l-8.32-21.97h4l4.56,12.7c.59,1.61,1.12,3.3,1.59,5.08.42-1.7.93-3.38,1.53-4.99l4.68-12.78h3.72l-8.34,22.3c-.89,2.41-1.59,4.07-2.08,4.97-.66,1.23-1.42,2.13-2.27,2.7-.85.57-1.87.86-3.06.86-.71,0-1.51-.15-2.39-.46Z"/><path class="cls-2" d="M1817.65,346.09v-30.26h11.42c2.01,0,3.54.09,4.6.28,1.49.25,2.73.72,3.73,1.42,1,.69,1.82,1.66,2.43,2.92.61,1.25.92,2.63.92,4.13,0,2.57-.82,4.75-2.46,6.53s-4.6,2.68-8.88,2.68h-7.76v12.3h-4ZM1821.65,330.21h7.82c2.59,0,4.43-.48,5.52-1.45,1.08-.96,1.63-2.32,1.63-4.07,0-1.26-.32-2.35-.96-3.25-.64-.9-1.48-1.49-2.52-1.78-.68-.18-1.92-.27-3.74-.27h-7.74v10.82Z"/><path class="cls-2" d="M1843.3,335.13c0-4.06,1.13-7.07,3.39-9.02,1.88-1.63,4.18-2.44,6.9-2.44,3.01,0,5.48.99,7.39,2.97,1.91,1.98,2.87,4.7,2.87,8.19,0,2.82-.42,5.04-1.27,6.66-.85,1.61-2.08,2.87-3.7,3.77-1.62.89-3.38,1.34-5.29,1.34-3.07,0-5.55-.98-7.45-2.95-1.89-1.97-2.84-4.8-2.84-8.5ZM1847.13,335.13c0,2.81.61,4.91,1.84,6.3,1.22,1.4,2.77,2.09,4.62,2.09s3.38-.7,4.6-2.1c1.22-1.41,1.84-3.55,1.84-6.42,0-2.72-.62-4.76-1.85-6.16-1.23-1.39-2.76-2.09-4.59-2.09s-3.4.69-4.62,2.09c-1.23,1.39-1.84,3.49-1.84,6.3Z"/><path class="cls-2" d="M1871.77,346.09l-6.71-21.93h3.84l3.49,12.66,1.3,4.7c.05-.23.44-1.74,1.14-4.52l3.49-12.84h3.82l3.28,12.72,1.1,4.19,1.26-4.23,3.76-12.68h3.61l-6.86,21.93h-3.86l-3.49-13.13-.85-3.73-4.44,16.87h-3.88Z"/><path class="cls-2" d="M1912.66,339.03l3.84.48c-.61,2.25-1.72,3.98-3.36,5.23-1.64,1.24-3.73,1.86-6.28,1.86-3.21,0-5.75-.98-7.63-2.96-1.88-1.98-2.82-4.75-2.82-8.31s.95-6.55,2.85-8.59c1.9-2.04,4.36-3.06,7.39-3.06s5.33,1,7.19,2.99,2.79,4.8,2.79,8.42c0,.22,0,.55-.02.99h-16.35c.13,2.41.82,4.25,2.04,5.54s2.75,1.92,4.58,1.92c1.36,0,2.52-.36,3.49-1.07s1.72-1.86,2.29-3.43ZM1900.46,333.02h12.24c-.17-1.84-.63-3.23-1.4-4.15-1.19-1.43-2.72-2.15-4.6-2.15-1.71,0-3.14.57-4.31,1.71s-1.8,2.67-1.93,4.58Z"/><path class="cls-2" d="M1920.9,346.09v-21.93h3.34v3.32c.85-1.55,1.64-2.58,2.37-3.07.72-.5,1.51-.75,2.38-.75,1.25,0,2.52.4,3.82,1.2l-1.28,3.44c-.91-.54-1.82-.8-2.73-.8-.81,0-1.54.24-2.19.73-.65.49-1.1,1.17-1.38,2.03-.42,1.32-.62,2.77-.62,4.33v11.48h-3.71Z"/><path class="cls-2" d="M1950.14,334.22v-3.55l12.82-.03v11.23c-1.97,1.57-4,2.75-6.09,3.54-2.09.79-4.23,1.19-6.44,1.19-2.97,0-5.67-.63-8.1-1.91-2.43-1.27-4.27-3.11-5.5-5.52-1.24-2.4-1.86-5.1-1.86-8.07s.61-5.69,1.84-8.24c1.24-2.56,3.01-4.45,5.32-5.69,2.31-1.24,4.97-1.86,7.99-1.86,2.19,0,4.17.35,5.94,1.06,1.76.71,3.15,1.69,4.16,2.96,1.01,1.27,1.77,2.92,2.29,4.95l-3.61.99c-.45-1.54-1.02-2.75-1.69-3.63s-1.64-1.59-2.89-2.11c-1.26-.53-2.64-.8-4.17-.8-1.84,0-3.42.28-4.75.84s-2.41,1.29-3.23,2.2c-.82.91-1.46,1.9-1.91,2.99-.77,1.87-1.16,3.9-1.16,6.09,0,2.7.46,4.95,1.39,6.77.92,1.82,2.28,3.16,4.06,4.04,1.77.89,3.66,1.32,5.65,1.32,1.73,0,3.43-.33,5.08-1s2.9-1.38,3.75-2.14v-5.64h-8.89Z"/><path class="cls-2" d="M1968.52,346.09v-21.93h3.34v3.32c.85-1.55,1.64-2.58,2.37-3.07.72-.5,1.51-.75,2.38-.75,1.25,0,2.52.4,3.82,1.2l-1.28,3.44c-.91-.54-1.82-.8-2.73-.8-.81,0-1.54.24-2.19.73-.65.49-1.1,1.17-1.38,2.03-.42,1.32-.62,2.77-.62,4.33v11.48h-3.71Z"/><path class="cls-2" d="M1982.96,320.1v-4.27h3.72v4.27h-3.72ZM1982.96,346.09v-21.93h3.72v21.93h-3.72Z"/><path class="cls-2" d="M2006.45,346.09v-2.77c-1.39,2.17-3.44,3.26-6.13,3.26-1.75,0-3.36-.48-4.82-1.45s-2.6-2.31-3.4-4.04c-.81-1.72-1.21-3.71-1.21-5.95s.36-4.18,1.09-5.96c.73-1.78,1.82-3.14,3.28-4.1s3.09-1.43,4.9-1.43c1.32,0,2.5.28,3.53.84,1.03.55,1.88,1.28,2.52,2.17v-10.85h3.69v30.26h-3.45ZM1994.71,335.15c0,2.81.59,4.9,1.78,6.3,1.18,1.39,2.58,2.08,4.19,2.08s3.01-.66,4.14-1.99c1.13-1.33,1.7-3.36,1.7-6.08,0-3.01-.57-5.21-1.73-6.61-1.16-1.41-2.58-2.11-4.27-2.11s-3.03.67-4.14,2.02c-1.1,1.35-1.66,3.47-1.66,6.38Z"/><path class="cls-1" d="M33.9,60.62c.69,1.68,47.86,116.83,49.38,120.51h-23.52c-.69-1.66-48.33-116.81-49.86-120.51h24ZM40.92,60.62c1.53,3.7,49.17,118.85,49.85,120.51h23.51c-1.51-3.68-48.69-118.83-49.37-120.51h-23.99ZM71.42,60.62c1.53,3.7,49.17,118.85,49.86,120.51h23.51c-1.51-3.68-48.7-118.83-49.38-120.51h-23.99ZM283.84,60.62c-.69,1.68-47.88,116.83-49.38,120.51h23.51c.7-1.66,48.34-116.81,49.87-120.51h-23.99ZM252.82,60.62c-.69,1.68-47.87,116.83-49.37,120.51h23.5c.69-1.66,48.33-116.81,49.86-120.51h-23.99ZM222.31,60.62c-.69,1.68-47.87,116.83-49.38,120.51h23.51c.69-1.66,48.34-116.81,49.87-120.51h-24ZM59.76,244.51c-.69,1.67-48.33,116.82-49.86,120.52h24c.69-1.68,47.87-116.83,49.38-120.52h-23.52ZM90.78,244.51c-.69,1.67-48.33,116.82-49.85,120.52h23.99c.68-1.68,47.86-116.83,49.37-120.52h-23.51ZM121.28,244.51c-.69,1.67-48.33,116.82-49.87,120.52h24c.68-1.68,47.87-116.83,49.38-120.52h-23.51ZM234.45,244.51c1.51,3.69,48.7,118.84,49.38,120.52h24c-1.53-3.7-49.17-118.85-49.87-120.52h-23.51ZM203.44,244.51c1.51,3.69,48.69,118.84,49.37,120.52h23.99c-1.53-3.7-49.17-118.85-49.86-120.52h-23.5ZM172.93,244.51c1.51,3.69,48.69,118.84,49.38,120.52h24c-1.53-3.7-49.18-118.85-49.87-120.52h-23.51ZM62.1,186.85c1.27,3.14,8.54,21.13,9.15,22.63h24.11c-1.24-3.13-8.35-21.11-8.95-22.63h-24.31ZM92.54,186.85c1.27,3.14,8.53,21.13,9.14,22.63h24.12c-1.24-3.13-8.36-21.12-8.95-22.63h-24.31ZM123.26,186.85c1.27,3.14,8.53,21.13,9.14,22.63h24.12c-1.23-3.13-8.35-21.11-8.94-22.63h-24.32ZM231.93,186.85c-.6,1.51-7.71,19.5-8.94,22.63h24.12c.6-1.49,7.86-19.48,9.14-22.63h-24.31ZM201.5,186.85c-.6,1.51-7.71,19.5-8.95,22.63h24.12c.6-1.49,7.87-19.48,9.14-22.63h-24.31ZM170.77,186.85c-.6,1.51-7.71,19.5-8.95,22.63h24.13c.6-1.49,7.86-19.48,9.14-22.63h-24.31ZM71.25,215.76c-.6,1.5-7.88,19.5-9.15,22.64h24.31c.6-1.51,7.71-19.5,8.95-22.64h-24.11ZM101.68,215.76c-.61,1.5-7.87,19.5-9.14,22.64h24.31c.59-1.51,7.72-19.5,8.95-22.64h-24.12ZM132.4,215.76c-.61,1.5-7.87,19.5-9.14,22.64h24.32c.59-1.51,7.71-19.5,8.94-22.64h-24.11ZM222.99,215.76c1.24,3.14,8.34,21.13,8.94,22.64h24.31c-1.27-3.14-8.53-21.14-9.14-22.64h-24.11ZM192.55,215.76c1.24,3.14,8.36,21.13,8.95,22.64h24.32c-1.27-3.14-8.54-21.14-9.15-22.64h-24.12ZM161.81,215.76c1.24,3.14,8.36,21.13,8.95,22.64h24.31c-1.27-3.14-8.53-21.14-9.14-22.64h-24.13Z"/><path class="cls-2" d="M434.44,124.78v-3c0-18.23-5.25-21.98-30.97-21.98-30.23,0-36.22,3.75-36.22,22.73,0,11.99,3,17.48,10.99,19.98,4.25,1.25,5.75,1.25,31.73,2.75,27.98,1.74,37.47,3.49,45.46,9.24,10.24,6.99,13.74,16.74,13.74,37.97s-3,31.97-10.24,39.22c-9.99,9.74-22.73,12.49-57.45,12.49-30.23,0-40.47-1.74-51.46-8.24-6.24-3.75-11.49-11.74-13.24-20.48-1.5-7.25-1.75-12.24-2-25.48h30.72c0,12.49.75,16.74,3.5,20.98,4,6.75,7.99,7.5,33.97,7.5,18.74,0,23.98-.75,28.73-4.5,4.24-3,6-9.49,6-20.98s-2.5-16.23-9.24-18.48q-4-1.5-31.72-3.25c-28.48-1.75-34.48-2.75-42.96-6.75-13.24-6.5-18.49-18.49-18.49-41.47,0-19.73,4.25-31.97,13.24-38.46,10.24-7.75,23.23-9.99,54.21-9.99s44.71,3.25,52.96,12.49c6.49,7.24,9.49,17.23,9.49,31.73v6h-30.72Z"/><path class="cls-2" d="M648.5,242.68h-28.22V76.07h28.22v166.62Z"/><path class="cls-2" d="M487.44,182.73c1.77-1.37,3.05-3.29,4.43-5.06,1.48-1.9,3.18-3.51,5.28-4.59,2.24-1.16,4.72-1.79,7.2-2.01.46-.04.92-.06,1.38-.07,2.02-.04,4.26.17,6.05,1.26,6.67,4.08,5.17,7.49,8.39,7.57,3.14.08,5.13.16,6.52-3.18.28-.89.93-3.44-.1-4.84-1.26-1.71-4.35-4.72-4.35-4.72,0,0-4.89,1.72-7.68-1.32-2.79-3.03-1.53-5.37-1.94-7.75-.4-2.38-4.4-3.64-4.4-3.64,0,0,3.74-.73,5.79,3.44s5.36,7.15,7.72,5.6c2.36-1.54,2.61-7.05-.73-7.78-3.35-.73-3.62,2.2-2.62,3.31,0,0-3.56-1.28-2.26-5.87s-2.96-7.57-2.96-7.57c0,0-2.63-1.54-10.05-1.92-2.8-.15-5.24-1.47-7.38-3.07-.45-.33-.82-.74-1.24-1.1-5.54,8.11-7.86,20.12-7.86,40.57,0,1.16.02,2.13.03,3.23.25-.17.53-.29.77-.48Z"/><path class="cls-2" d="M496.03,139.22c1.78,1.07,3.74,1.9,5.83,2.28,2.2.39,4.49.06,6.73-.09,2.4-.16,4.74.02,6.95.85,2.37.89,4.49,2.31,6.31,4.01.34.31.66.64.98.98,1.38,1.48,2.73,3.28,3.11,5.34,1.43,7.68-2.1,8.86-.01,11.3s4.93,5.44,8.54,4.07c0,0,.01,0,.04-.01.21-.1.42-.2.63-.3.76-.42,1.9-1.27,2.04-2.68.21-2.12,0-7.61,0-7.61,0,0-4.78-2-4.82-6.12-.04-4.12,2.45-5.02,3.74-7.06,1.29-2.04-.83-5.65-.83-5.65,0,0,3.26,1.96,2.01,6.43-1.26,4.47-.8,8.9,1.99,9.33s6.66-3.49,4.66-6.27c-2-2.78-4.16-.78-4.16.71,0,0-1.79-3.33,2.25-5.88,4.04-2.55,2.87-7.61,2.87-7.61,0,0-.93-2.9-6.18-8.15-.73-.73-1.19-1.61-1.67-2.49-20.68.35-30.3,2.76-37.87,9.42-1.52,1.35-2.82,2.89-4.04,4.53.32.21.61.47.94.67Z"/><path class="cls-2" d="M579.32,132.9c-.88,1.88-1.5,3.92-1.66,6.04-.16,2.23.41,4.47.8,6.68.41,2.37.47,4.71-.12,7-.64,2.45-1.82,4.7-3.33,6.69-.28.37-.57.73-.87,1.07-1.32,1.53-2.98,3.05-4.99,3.65-7.49,2.23-9.03-1.17-11.24,1.17-.98,1.03-1.89,2.13-2.69,3.3-.43.64-.84,1.31-1.18,2-.14.29-.42.72-.45,1.04-.03.33.22.54.44.79.97,1.1,1.69,2.43,2.25,3.79.36.88.53,1.79,1.64,1.9,2.12.21,4.93-.35,4.93-.35,0,0,2-4.78,6.12-4.83,4.12-.04,5.02,2.45,7.06,3.74s5.65-.83,5.65-.83c0,0-1.96,3.26-6.43,2.01-4.47-1.26-8.9-.8-9.33,1.99s3.49,6.66,6.27,4.66c2.78-2,.78-4.16-.71-4.16,0,0,3.33-1.79,5.88,2.25,2.55,4.04,7.61,2.87,7.61,2.87,0,0,2.9-.93,8.16-6.18,1.05-1.05,2.29-1.78,3.6-2.33-.39-23.24-3.71-34.86-11.91-42.59-1.34-1.25-2.82-2.32-4.4-3.3-.37.64-.78,1.26-1.09,1.93Z"/><path class="cls-2" d="M539.13,124.7c1.37,1.77,3.29,3.05,5.06,4.43,1.9,1.49,3.51,3.19,4.6,5.28,1.16,2.24,1.79,4.72,2.01,7.2.04.46.06.92.07,1.38.04,2.02-.17,4.26-1.27,6.05-4.08,6.67-7.49,5.17-7.57,8.39-.07,2.96.39,7.3,3.26,9.06,1.17.54,2.7,1.13,3.45.9,2.03-.64,5.62-5.51,5.62-5.51,0,0-2.22-4.69.51-7.77,2.72-3.09,5.18-2.09,7.5-2.74,2.32-.65,3.16-4.75,3.16-4.75,0,0,1.11,3.64-2.81,6.12-3.93,2.48-6.55,6.08-4.77,8.26,1.78,2.19,7.28,1.86,7.66-1.54.38-3.41-2.57-3.37-3.56-2.26,0,0,.9-3.67,5.6-2.87,4.7.81,7.22-3.73,7.22-3.73,0,0,1.26-2.78.86-10.2-.15-2.8.91-5.36,2.28-7.66.47-.8,1.06-1.51,1.61-2.25-7.47-4.32-18.08-5.96-37.02-5.96-1.27,0-2.35.03-3.54.05.03.04.05.08.07.12Z"/><path class="cls-2" d="M534.47,167.95h-.01s0,.01,0,.01c0,0,.01,0,.02-.01Z"/><path class="cls-2" d="M557.04,185.77h0s0-.02,0-.02c0,0,0,.02,0,.02Z"/><path class="cls-2" d="M595.51,179.65c-1.77,1.37-3.05,3.29-4.43,5.06-1.48,1.9-3.19,3.51-5.28,4.59-2.24,1.16-4.72,1.79-7.2,2.01-.46.04-.92.06-1.38.07-2.02.04-4.26-.17-6.05-1.26-6.67-4.08-5.17-7.49-8.39-7.57-3.21-.08-4.33-.39-5.73,3.21,0,0,0,.01-.01.02-.15.66-.35,1.31-.59,1.93-.12.77-.09,1.62.35,2.29,1.05,1.61,4.35,5.32,4.35,5.32,0,0,4.85-1.63,7.23,1.22,2.38,2.85.97,5.06,1.14,7.3s3.87,3.42,3.87,3.42c0,0-3.65.7-5.23-3.22-1.58-3.92-4.47-6.73-6.87-5.26-2.4,1.46-3.16,6.65-.02,7.33,3.14.68,3.67-2.09,2.82-3.13,0,0,3.29,1.2,1.62,5.53-1.67,4.34,2.13,7.13,2.13,7.13,0,0,2.37,1.44,9.45,1.78,2.67.13,4.88,1.37,6.79,2.87,2.1,1.65,3.87,3.68,5.22,5.97-1.73-1.74-3.52-3.44-5.62-4.75-1.61-1.01-3.41-1.78-5.37-2.13-2.07-.36-4.29-.04-6.45.11-2.32.16-4.54,0-6.58-.78-2.18-.83-4.08-2.16-5.67-3.76-.29-.3-.57-.6-.84-.92-1.19-1.39-2.31-3.09-2.48-5.03-.66-7.24,2.84-8.36,1.06-10.66-.3-.39-.6-.79-.9-1.19-.9-1.16-1.96-2.31-3.51-2.42-1.94-.14-3.7,1.03-5.2,2.12-1.12.82-2.3,2-2.44,3.45-.21,2.12.08,5.96.08,5.96,0,0,4.79,2,4.83,6.12s-2.45,5.02-3.74,7.06c-1.29,2.04.83,5.65.83,5.65,0,0-3.26-1.96-2.01-6.43,1.26-4.47.8-8.9-1.99-9.33-2.79-.43-6.66,3.49-4.66,6.27,2,2.78,4.16.78,4.16-.71,0,0,1.79,3.33-2.25,5.88-4.03,2.55-2.87,7.61-2.87,7.61,0,0,.92,2.9,6.18,8.16,1.98,1.98,2.91,4.6,3.43,7.22.02.11.02.22.04.33,40.68-.92,49.48-12.84,49.48-62.6,0-.93-.04-1.71-.04-2.61-.41.26-.86.47-1.25.77Z"/><path class="cls-2" d="M543.4,238.93c-1.37-1.77-3.29-3.05-5.06-4.43-1.9-1.49-3.51-3.19-4.59-5.28-1.16-2.24-1.79-4.72-2.01-7.2-.04-.46-.06-.92-.07-1.38-.04-2.02.17-4.26,1.26-6.05,4.08-6.66,7.49-5.17,7.57-8.39.05-1.89-.49-3.82-1.33-5.49-.76-1.51-1.79-2.74-3.21-3.66-1.29-.84-3.15-1.67-4.49-.45-1.57,1.43-3.92,4.47-3.92,4.47,0,0,2.22,4.69-.51,7.77-2.73,3.09-5.18,2.09-7.51,2.74-2.32.65-3.16,4.75-3.16,4.75,0,0-1.11-3.64,2.81-6.12,3.92-2.48,6.55-6.08,4.77-8.26-1.78-2.19-7.28-1.86-7.66,1.54-.38,3.4,2.57,3.37,3.56,2.26,0,0-.9,3.67-5.6,2.87-4.7-.81-7.22,3.73-7.22,3.73,0,0-1.25,2.78-.86,10.2.15,2.8-.92,5.36-2.28,7.66-1.08,1.81-2.43,3.42-3.9,4.92,7.92,6.47,20.59,9.06,41.85,9.06,1.47,0,2.8-.05,4.2-.07-.6-1.84-1.44-3.63-2.65-5.18Z"/><path class="cls-2" d="M502.58,230.04c.88-1.88,1.5-3.92,1.65-6.04.16-2.23-.41-4.47-.79-6.68-.41-2.37-.47-4.71.12-7,.64-2.45,1.82-4.7,3.33-6.69.28-.37.57-.73.87-1.07,1.32-1.53,2.98-3.05,4.99-3.65,7.49-2.23,9.03,1.17,11.24-1.17,2.21-2.33,4.96-5.52,3.21-8.96-.59-1.29-1.03-2.68-1.26-4.13-.07-.01-.13-.02-.2-.03-2.12-.21-5.64.09-5.64.09,0,0-2,4.78-6.12,4.83-4.12.04-5.02-2.45-7.06-3.74s-5.65.83-5.65.83c0,0,1.96-3.26,6.43-2.01,4.47,1.26,8.9.8,9.33-1.99.43-2.79-3.49-6.66-6.27-4.66-2.78,2-.78,4.16.71,4.16,0,0-3.33,1.79-5.88-2.25-2.55-4.04-7.61-2.87-7.61-2.87,0,0-2.9.93-8.16,6.18-.92.93-2.01,1.58-3.14,2.11.23,24.41,2.09,34.53,7.45,43.14,1.51,2.48,3.38,4.55,5.55,6.39,1.08-1.53,2.1-3.09,2.9-4.79Z"/></svg>
